<svg id="Layer_1" data-name="Layer 1" xmlns="http://www.w3.org/2000/svg" viewBox="0 0 612 792"><defs><style>.cls-1{fill:#9c6954;}.cls-2{fill:#231f20;}</style></defs><title>title</title><path class="cls-1" d="M33.84,253.88h7.08v45H33.84v-45Z"/><path class="cls-1" d="M90.78,298.88L64.92,267.8l-3-3.84L61.8,264l0.06,4.86v30h-6.3v-45H61.8l24.48,30.06,3.06,3.78,0.12-.06-0.12-4.8v-29h6.24v45h-4.8Z"/><path class="cls-1" d="M121.86,299.72a32.74,32.74,0,0,1-15.6-3.66l1-6.12a29.66,29.66,0,0,0,14.7,3.84c7.44,0,11.1-3.06,11.1-7.56,0-10-26.34-4.5-26.34-20.1,0-7,5-13,17.16-13a38.52,38.52,0,0,1,14.22,2.58l-1,5.82a39.5,39.5,0,0,0-13-2.34c-8,0-10.74,3.24-10.74,6.54,0,9.66,26.4,4,26.4,20C139.74,294.14,133.38,299.72,121.86,299.72Z"/><path class="cls-1" d="M165.78,260.18v38.7h-7v-38.7h-15.9l0.18-6.3h38.52l0.12,6.3h-15.9Z"/><path class="cls-1" d="M216.3,288.32H192.12l-4.32,10.56h-7.5l20-45h8l20.1,45h-7.86Zm-13.8-25.08-8,19.38H214l-7.86-19.38-1.68-4.56H204.3Z"/><path class="cls-2" d="M243.54,260.18V273.5h21.9l-0.06,5.82H243.54v19.56h-7v-45h32.88l0.18,6.3h-26.1Z"/><path class="cls-2" d="M297.84,299.72c-15.84,0-22.08-7.74-22.08-23.34s6.18-23.22,22.08-23.22,22,7.62,22,23.22S313.8,299.72,297.84,299.72Zm0-40.44c-10.68,0-14.76,4.32-14.76,17.1s4.08,17.16,14.76,17.16,14.76-4.44,14.76-17.16S308.58,259.28,297.84,259.28Z"/><path class="cls-2" d="M350.34,299.72c-15.84,0-22.08-7.74-22.08-23.34s6.18-23.22,22.08-23.22,22,7.62,22,23.22S366.29,299.72,350.34,299.72Zm0-40.44c-10.68,0-14.76,4.32-14.76,17.1s4.08,17.16,14.76,17.16,14.76-4.44,14.76-17.16S361.08,259.28,350.34,259.28Z"/><path class="cls-2" d="M399.42,260.18v38.7h-7v-38.7H376.5l0.18-6.3H415.2l0.12,6.3h-15.9Z"/><path class="cls-2" d="M444.3,298.88H423.42v-45h19.92c10.08,0,15.18,4.14,15.18,11.28,0,5.58-3,8.7-7.08,10v0.12c5.82,1.26,9.18,4.92,9.18,10.74C460.62,294,456.05,298.88,444.3,298.88Zm-1.2-39.18h-13v13.5h13.74c5.28,0,8-2.28,8-6.78S449.1,259.7,443.1,259.7Zm1.14,18.48H430.08v15.06h14.28c5.94,0,9.42-2,9.42-7.74C453.78,280.7,450.71,278.18,444.24,278.18Z"/><path class="cls-2" d="M501.6,288.32H477.42l-4.32,10.56h-7.5l20-45h8l20.1,45h-7.86Zm-13.8-25.08-8,19.38h19.56l-7.86-19.38-1.68-4.56H489.6Z"/><path class="cls-2" d="M554,292.58l-0.18,6.3h-32v-45h7v38.7H554Z"/><path class="cls-2" d="M595,292.58l-0.18,6.3h-32v-45h7v38.7H595Z"/></svg>